<svg width="326" height="235" viewBox="0 0 326 235" fill="none" xmlns="http://www.w3.org/2000/svg">
<rect width="326" height="235" fill="#E5E5E5"/>
<path id="almanaque" d="M308.5 234.084H17.5C12.8603 234.078 8.41221 232.233 5.13147 228.952C1.85073 225.671 0.0052934 221.223 0 216.584V42.5836C0.0052934 37.944 1.85073 33.4958 5.13147 30.2151C8.41221 26.9343 12.8603 25.0889 17.5 25.0836H308.5C313.14 25.0889 317.588 26.9343 320.869 30.2151C324.149 33.4958 325.995 37.944 326 42.5836V216.584C325.995 221.223 324.149 225.671 320.869 228.952C317.588 232.233 313.14 234.078 308.5 234.084ZM17.5 28.0836C13.6557 28.088 9.97015 29.6171 7.25183 32.3354C4.53351 35.0538 3.00442 38.7393 3 42.5836V216.584C3.00442 220.428 4.53351 224.113 7.25183 226.832C9.97015 229.55 13.6557 231.079 17.5 231.084H308.5C312.344 231.079 316.03 229.55 318.748 226.832C321.466 224.113 322.996 220.428 323 216.584V42.5836C322.996 38.7393 321.466 35.0538 318.748 32.3354C316.03 29.6171 312.344 28.088 308.5 28.0836H17.5Z" fill="#3F3D56"/>
<path id="left-circle" d="M56.5 66.0836C54.0277 66.0836 51.611 65.3505 49.5554 63.977C47.4998 62.6035 45.8976 60.6512 44.9515 58.3671C44.0054 56.0831 43.7579 53.5697 44.2402 51.145C44.7225 48.7202 45.913 46.4929 47.6612 44.7448C49.4093 42.9966 51.6366 41.8061 54.0614 41.3238C56.4861 40.8415 58.9995 41.089 61.2836 42.0351C63.5676 42.9812 65.5199 44.5834 66.8934 46.639C68.2669 48.6946 69 51.1113 69 53.5836C68.9963 56.8977 67.6781 60.0749 65.3347 62.4183C62.9913 64.7617 59.8141 66.0799 56.5 66.0836V66.0836ZM56.5 44.0836C54.6211 44.0836 52.7844 44.6408 51.2221 45.6847C49.6598 46.7285 48.4422 48.2122 47.7232 49.9481C47.0041 51.684 46.816 53.5942 47.1825 55.437C47.5491 57.2798 48.4539 58.9725 49.7825 60.3011C51.1111 61.6297 52.8038 62.5345 54.6467 62.9011C56.4895 63.2676 58.3996 63.0795 60.1355 62.3605C61.8714 61.6414 63.3551 60.4238 64.399 58.8615C65.4428 57.2993 66 55.4625 66 53.5836C65.9972 51.0649 64.9953 48.6502 63.2144 46.8693C61.4334 45.0883 59.0187 44.0865 56.5 44.0836Z" fill="#3F3D56"/>
<path id="right-circle" d="M267.5 66.0836C265.028 66.0836 262.611 65.3505 260.555 63.977C258.5 62.6035 256.898 60.6512 255.951 58.3671C255.005 56.0831 254.758 53.5697 255.24 51.145C255.723 48.7202 256.913 46.4929 258.661 44.7448C260.409 42.9966 262.637 41.8061 265.061 41.3238C267.486 40.8415 269.999 41.089 272.284 42.0351C274.568 42.9812 276.52 44.5834 277.893 46.639C279.267 48.6946 280 51.1113 280 53.5836C279.996 56.8977 278.678 60.0749 276.335 62.4183C273.991 64.7617 270.814 66.0799 267.5 66.0836V66.0836ZM267.5 44.0836C265.621 44.0836 263.784 44.6408 262.222 45.6847C260.66 46.7285 259.442 48.2122 258.723 49.9481C258.004 51.684 257.816 53.5942 258.183 55.437C258.549 57.2798 259.454 58.9725 260.782 60.3011C262.111 61.6297 263.804 62.5345 265.647 62.9011C267.489 63.2676 269.4 63.0795 271.136 62.3605C272.871 61.6414 274.355 60.4238 275.399 58.8615C276.443 57.2993 277 55.4625 277 53.5836C276.997 51.0649 275.995 48.6502 274.214 46.8693C272.433 45.0883 270.019 44.0865 267.5 44.0836V44.0836Z" fill="#3F3D56"/>
<path id="square-1" d="M26.6997 138.884C25.2936 137.478 24.5025 135.572 24.5 133.583V101.584C24.5025 99.5957 25.2936 97.6894 26.6997 96.2833C28.1058 94.8772 30.0121 94.0861 32.0006 94.0836H85.9994C87.9879 94.0861 89.8942 94.8772 91.3003 96.2833C92.7066 97.6895 93.4976 99.5961 93.5 101.585V133.582C93.4976 135.571 92.7066 137.478 91.3003 138.884C89.8941 140.29 87.9875 141.081 85.9988 141.084H32.0012C30.0125 141.081 28.1059 140.29 26.6997 138.884Z" fill="#E6E6E6" stroke="black" stroke-width="2"/>
<path id="square-2" d="M130.7 138.884C129.294 137.478 128.503 135.572 128.5 133.583V101.584C128.503 99.5957 129.294 97.6894 130.7 96.2833C132.106 94.8772 134.012 94.0861 136.001 94.0836H189.999C191.988 94.0861 193.894 94.8772 195.3 96.2833C196.707 97.6895 197.498 99.5961 197.5 101.585V133.582C197.498 135.571 196.707 137.478 195.3 138.884C193.894 140.29 191.988 141.081 189.999 141.084H136.001C134.012 141.081 132.106 140.29 130.7 138.884Z" fill="#E6E6E6" stroke="black" stroke-width="2"/>
<path id="square-3" d="M235.406 96.9898C236.625 95.7712 238.277 95.0856 240.001 95.0836H293.999C295.723 95.0856 297.375 95.7712 298.594 96.9898C299.813 98.2086 300.498 99.8611 300.5 101.585V133.583C300.498 135.306 299.813 136.959 298.594 138.177C297.375 139.396 295.723 140.082 293.999 140.084H240.001C238.277 140.082 236.625 139.396 235.406 138.177C234.188 136.959 233.502 135.306 233.5 133.583V101.584C233.502 99.8608 234.188 98.2085 235.406 96.9898Z" fill="#E6E6E6" stroke="black" stroke-width="2"/>
<path id="square-4" d="M27.1997 202.884C25.7936 201.478 25.0025 199.572 25 197.583V165.584C25.0025 163.596 25.7936 161.689 27.1997 160.283C28.6058 158.877 30.5121 158.086 32.5006 158.084H86.4994C88.4879 158.086 90.3942 158.877 91.8003 160.283C93.2066 161.69 93.9976 163.596 94 165.585V197.582C93.9976 199.571 93.2066 201.478 91.8003 202.884C90.3941 204.29 88.4875 205.081 86.4988 205.084H32.5012C30.5125 205.081 28.6059 204.29 27.1997 202.884Z" fill="#E6E6E6" stroke="black" stroke-width="2"/>
<path id="square-5" d="M131.2 202.884C129.794 201.478 129.003 199.572 129 197.583V165.584C129.003 163.596 129.794 161.689 131.2 160.283C132.606 158.877 134.512 158.086 136.501 158.084H190.499C192.488 158.086 194.394 158.877 195.8 160.283C197.207 161.69 197.998 163.596 198 165.585V197.582C197.998 199.571 197.207 201.478 195.8 202.884C194.394 204.29 192.488 205.081 190.499 205.084H136.501C134.512 205.081 132.606 204.29 131.2 202.884Z" fill="#E6E6E6" stroke="black" stroke-width="2"/>
<path id="square-6" d="M235.2 202.884C233.794 201.478 233.003 199.572 233 197.583V165.584C233.003 163.596 233.794 161.689 235.2 160.283C236.606 158.877 238.512 158.086 240.501 158.084H294.499C296.488 158.086 298.394 158.877 299.8 160.283C301.207 161.69 301.998 163.596 302 165.585V197.582C301.998 199.571 301.207 201.478 299.8 202.884C298.394 204.29 296.488 205.081 294.499 205.084H240.501C238.512 205.081 236.606 204.29 235.2 202.884Z" fill="#E6E6E6" stroke="black" stroke-width="2"/>
<path id="left-line" d="M56.5 57.0836C55.5721 57.0825 54.6825 56.7134 54.0264 56.0573C53.3702 55.4011 53.0011 54.5115 53 53.5836V3.58362C53 2.65536 53.3687 1.76511 54.0251 1.10873C54.6815 0.452357 55.5717 0.0836182 56.5 0.0836182C57.4283 0.0836182 58.3185 0.452357 58.9749 1.10873C59.6312 1.76511 60 2.65536 60 3.58362V53.5836C59.9989 54.5115 59.6298 55.4011 58.9736 56.0573C58.3175 56.7134 57.4279 57.0825 56.5 57.0836V57.0836Z" fill="#3F3D56"/>
<path id="right-line" d="M267.5 57.0836C266.572 57.0825 265.683 56.7134 265.026 56.0573C264.37 55.4011 264.001 54.5115 264 53.5836V3.58362C264 2.65536 264.369 1.76511 265.025 1.10873C265.682 0.452357 266.572 0.0836182 267.5 0.0836182C268.428 0.0836182 269.318 0.452357 269.975 1.10873C270.631 1.76511 271 2.65536 271 3.58362V53.5836C270.999 54.5115 270.63 55.4011 269.974 56.0573C269.317 56.7134 268.428 57.0825 267.5 57.0836V57.0836Z" fill="#3F3D56"/>
<path id="check-1" d="M56.9587 129.775C55.4863 129.777 54.0531 129.301 52.8751 128.418L52.8021 128.363L37.4214 116.597C35.9828 115.494 35.0412 113.865 34.8038 112.068C34.5664 110.271 35.0527 108.453 36.1556 107.014C37.2586 105.576 38.8878 104.634 40.685 104.397C42.4821 104.159 44.3 104.646 45.7386 105.748L55.701 113.388L79.2426 82.6753C79.7885 81.9633 80.4693 81.3657 81.2461 80.9168C82.0229 80.4679 82.8806 80.1763 83.7701 80.0588C84.6596 79.9413 85.5635 80.0002 86.4302 80.232C87.297 80.4639 88.1096 80.8642 88.8216 81.4101L88.8236 81.4116L88.6775 81.6144L88.8276 81.4116C90.2641 82.5156 91.2039 84.1445 91.4409 85.9407C91.6778 87.737 91.1925 89.5538 90.0914 90.9926L62.4012 127.101C61.7606 127.933 60.9369 128.606 59.9941 129.069C59.0513 129.531 58.0147 129.77 56.9646 129.767L56.9587 129.775Z" fill="#6C63FF"/>
<path id="check-3" d="M163.959 193.555C162.486 193.557 161.053 193.081 159.875 192.198L159.802 192.143L144.421 180.377C142.983 179.274 142.041 177.645 141.804 175.848C141.566 174.051 142.053 172.233 143.156 170.794C144.259 169.356 145.888 168.414 147.685 168.177C149.482 167.939 151.3 168.425 152.739 169.528L162.701 177.168L186.243 146.455C186.788 145.743 187.469 145.146 188.246 144.697C189.023 144.248 189.881 143.956 190.77 143.839C191.66 143.721 192.563 143.78 193.43 144.012C194.297 144.244 195.11 144.644 195.822 145.19L195.824 145.191L195.677 145.394L195.828 145.191C197.264 146.296 198.204 147.924 198.441 149.721C198.678 151.517 198.192 153.334 197.091 154.772L169.401 190.881C168.761 191.713 167.937 192.386 166.994 192.849C166.051 193.311 165.015 193.55 163.965 193.547L163.959 193.555Z" fill="#6C63FF"/>
<path id="check-2" d="M264.959 130.555C263.486 130.557 262.053 130.081 260.875 129.198L260.802 129.143L245.421 117.377C243.983 116.274 243.041 114.645 242.804 112.848C242.566 111.051 243.053 109.233 244.156 107.794C245.259 106.356 246.888 105.414 248.685 105.177C250.482 104.939 252.3 105.425 253.739 106.528L263.701 114.168L287.243 83.4553C287.788 82.7432 288.469 82.1457 289.246 81.6967C290.023 81.2478 290.881 80.9562 291.77 80.8387C292.66 80.7212 293.563 80.7801 294.43 81.012C295.297 81.2438 296.11 81.6441 296.822 82.19L296.824 82.1915L296.677 82.3943L296.828 82.1915C298.264 83.2955 299.204 84.9244 299.441 86.7206C299.678 88.5169 299.192 90.3337 298.091 91.7725L270.401 127.881C269.761 128.713 268.937 129.386 267.994 129.849C267.051 130.311 266.015 130.55 264.965 130.547L264.959 130.555Z" fill="#6C63FF"/>
</svg>
